<?xml version="1.0" encoding="utf-8"?>
<!-- Generator: Adobe Illustrator 16.0.0, SVG Export Plug-In . SVG Version: 6.00 Build 0)  -->
<!DOCTYPE svg PUBLIC "-//W3C//DTD SVG 1.1//EN" "http://www.w3.org/Graphics/SVG/1.1/DTD/svg11.dtd">
<svg version="1.1" id="Layer_1" xmlns="http://www.w3.org/2000/svg" xmlns:xlink="http://www.w3.org/1999/xlink" x="0px" y="0px"
	 width="612px" height="98.721px" viewBox="0 0 612 98.721" enable-background="new 0 0 612 98.721" xml:space="preserve">
<path fill="#ffffff" d="M602.447,59.446v10.322h-6.734v22.056h-7.843V80.051h-9.374v11.771h-14.631l-1.892-28.138l0.883-22.558
	c6.693-0.362,11.697-1.804,11.697-3.525c0-1.521-3.892-2.818-9.4-3.354c2.206-0.407,3.634-1.047,3.634-1.768
	c0-0.948-3.474-1.757-6.938-2.077l-1.916-13.528l-2.248,13.49c-3.689,0.292-7.365,1.128-7.365,2.115
	c0,0.721,1.429,1.359,3.633,1.768c-5.507,0.535-9.399,1.834-9.399,3.354c0,1.76,5.216,3.225,12.123,3.549l1.018,22.537
	l-2.025,28.135h-35.785v-6.695h-17.854v6.695h-12.041V80.051h-6.921V68.159h-10.42v23.664h-3.764V76.681h-7.363v15.143h-40.412
	L331.445-0.061l-81.089,81.99l-44.808-10.105l-23.697,14l-104.873-27l-77.66,27.625v12.272L612,98.659V59.446H602.447z"/>
</svg>
