<?xml version="1.0" encoding="utf-8"?>
<!-- Generator: Adobe Illustrator 16.0.0, SVG Export Plug-In . SVG Version: 6.00 Build 0)  -->
<!DOCTYPE svg PUBLIC "-//W3C//DTD SVG 1.1//EN" "http://www.w3.org/Graphics/SVG/1.1/DTD/svg11.dtd">
<svg version="1.1" id="Layer_1" xmlns="http://www.w3.org/2000/svg" xmlns:xlink="http://www.w3.org/1999/xlink" x="0px" y="0px"
	 width="612px" height="98.721px" viewBox="0 0 612 98.721" enable-background="new 0 0 612 98.721" xml:space="preserve">
<path fill="#FFFFFF" d="M603.147,59.507v10.322h-6.724v22.056h-7.828V80.113h-9.358v11.771h-14.605l-1.888-28.138l0.881-22.557
	c6.682-0.363,11.677-1.804,11.677-3.526c0-1.52-3.885-2.818-9.383-3.354c2.201-0.407,3.626-1.047,3.626-1.768
	c0-0.948-3.467-1.757-6.926-2.077l-1.913-13.528l-2.244,13.49c-3.683,0.292-7.352,1.128-7.352,2.115c0,0.721,1.426,1.36,3.627,1.768
	c-5.498,0.535-9.383,1.834-9.383,3.354c0,1.76,5.207,3.225,12.101,3.549l1.016,22.537l-2.022,28.135h-35.721v-6.695h-17.824v6.695
	h-12.019V80.113h-6.908V68.221h-10.402v23.664h-3.757V76.742h-7.35v15.143h-40.34L332.623,0l-80.945,81.99l-44.729-10.105
	l-23.655,14l-104.687-27L1,86.54v12.181h611.682V59.507H603.147z"/>
</svg>
