<?xml version="1.0" encoding="utf-8"?>
<!-- Generator: Adobe Illustrator 16.0.0, SVG Export Plug-In . SVG Version: 6.00 Build 0)  -->
<!DOCTYPE svg PUBLIC "-//W3C//DTD SVG 1.1//EN" "http://www.w3.org/Graphics/SVG/1.1/DTD/svg11.dtd">
<svg version="1.1" id="Layer_1" xmlns="http://www.w3.org/2000/svg" xmlns:xlink="http://www.w3.org/1999/xlink" x="0px" y="0px"
	 width="612px" height="87.464px" viewBox="0 0 612 87.464" enable-background="new 0 0 612 87.464" xml:space="preserve">
<polygon fill="#6F5CA7" points="603.371,13.576 584.459,64.357 562.738,20.141 545.265,61.643 528.041,14.862 513.271,59.104 
	506.378,47.944 495.287,80.664 477.709,54.721 466.275,80.664 449.867,80.664 436.387,61.059 425.5,80.664 405.595,80.664 
	402.098,74.83 399.805,80.664 384.429,80.664 379.891,73.132 375.5,80.664 297.5,80.664 291.265,68.787 284.917,80.664 
	276.5,80.664 269.058,70.483 262.5,80.664 247.5,80.664 235.345,56.175 223.196,80.664 206.5,80.664 193.893,50.101 181,80.664 
	173,80.664 157.708,45.132 148.303,55.671 129.816,4.33 103.821,61.039 84.25,9.332 57.889,63.736 30.75,0 0,62.607 0,87.464 
	612,87.464 612,31.134 "/>
</svg>
