<?xml version="1.0" encoding="utf-8"?>
<!-- Generator: Adobe Illustrator 16.0.0, SVG Export Plug-In . SVG Version: 6.00 Build 0)  -->
<!DOCTYPE svg PUBLIC "-//W3C//DTD SVG 1.1//EN" "http://www.w3.org/Graphics/SVG/1.1/DTD/svg11.dtd">
<svg version="1.1" id="Layer_1" xmlns="http://www.w3.org/2000/svg" xmlns:xlink="http://www.w3.org/1999/xlink" x="0px" y="0px"
	 width="612px" height="87.464px" viewBox="0 0 612 87.464" enable-background="new 0 0 612 87.464" xml:space="preserve">
<polygon fill="#6F5CA7" points="603.371,13.576 584.459,64.357 562.738,20.141 545.265,61.643 528.041,14.862 513.271,59.104 
	506.378,47.944 495.287,80.663 477.709,54.721 466.275,80.663 449.867,80.663 436.387,61.059 425.5,80.663 405.595,80.663 
	402.098,74.829 399.805,80.663 384.429,80.663 379.891,73.133 375.5,80.663 297.5,80.663 291.265,68.787 284.917,80.663 
	276.5,80.663 269.058,70.483 262.5,80.663 247.5,80.663 235.345,56.176 223.196,80.663 206.5,80.663 193.893,50.101 181,80.663 
	173,80.663 157.708,45.132 148.303,55.671 129.816,4.33 103.821,61.038 84.25,9.332 57.889,63.736 30.75,0 1,61.68 1,87.464 
	612.682,87.464 612.682,32.521 "/>
</svg>
